<svg width="80" height="80" xmlns="http://www.w3.org/2000/svg">

 <g>
  <title>background</title>
  <rect fill="none" id="canvas_background" height="402" width="582" y="-1" x="-1"/>
 </g>
 <g>
  <title>Layer 1</title>
  <path id="svg_1" fill="#F5C276" d="m17.442,49.921c-2.395,-0.386 -11.85,-2.588 -15.302,-14.852c2.605,2.558 7.927,6.931 13.86,6.931l0.053,0c-0.032,-0.649 -0.053,-1.312 -0.053,-2c-7.361,0 -14,-8 -14,-8l-2,0c0,21.754 18.667,26.667 18.667,26.667l6.633,1.843c-3.121,-2.065 -6.144,-5.355 -7.858,-10.589z"/>
  <g id="svg_2">
   <path id="svg_3" fill="#C2E8FF" d="m76.475,33.5c-0.365,-3.478 -4.601,-4.391 -9.47,-5.441c-6.799,-1.467 -14.505,-3.13 -14.505,-12.059c-0.001,-0.038 -0.028,-2.712 2.045,-4.826c1.74,-1.775 4.435,-2.674 8.011,-2.674c2.993,0 5.297,0.801 6.846,2.38c2.129,2.169 2.1,5.082 2.099,5.11c0,0.04 -0.001,2.694 -1.588,4.291c-0.804,0.809 -1.896,1.219 -3.245,1.219c-1.378,0 -2.434,-0.408 -3.138,-1.214c-1.375,-1.575 -1.037,-4.191 -1.034,-4.218l0.075,-0.55l-0.684,-0.02c-2.12,0 -4.387,0.657 -4.387,2.501c0,4.313 4.599,5.792 9.468,7.358c5.01,1.612 10.186,3.277 10.516,8.142l-1.009,0l0,0.001z"/>
   <path id="svg_4" fill="#8BB7F0" d="m62.556,9c2.842,0 5.02,0.744 6.472,2.212c1.979,2.002 1.972,4.746 1.972,4.797c0,0.024 -0.017,2.481 -1.439,3.915c-0.717,0.724 -1.663,1.076 -2.894,1.076c-1.243,0 -2.145,-0.34 -2.758,-1.04c-1.224,-1.398 -0.921,-3.801 -0.918,-3.823l0.151,-1.102l-1.112,-0.035l-0.143,-0.002c-3.015,0.001 -4.887,1.151 -4.887,3.002c0,4.677 4.989,6.282 9.815,7.835c4.863,1.565 9.476,3.048 10.111,7.165l-0.022,0c-0.7,-3.469 -5.128,-4.424 -9.794,-5.431c-6.614,-1.427 -14.11,-3.044 -14.11,-11.589c0,-0.025 -0.014,-2.513 1.914,-4.468c1.643,-1.667 4.214,-2.512 7.642,-2.512m0,-1c-10.751,0 -10.556,8 -10.556,8c0,16.056 24,9.667 24,18l2,0c0,-10.611 -20,-7.611 -20,-16c0,-1.905 3.235,-2.001 3.887,-2.001c0.073,0 0.113,0.001 0.113,0.001s-0.833,6 4.667,6c5.389,0 5.333,-6 5.333,-6s0.15,-8 -9.444,-8l0,0z"/>
  </g>
  <g id="svg_5">
   <path id="svg_6" fill="#FFEEA3" d="m34,31.5c-1.93,0 -3.5,-1.57 -3.5,-3.5s1.57,-3.5 3.5,-3.5s3.5,1.57 3.5,3.5s-1.57,3.5 -3.5,3.5z"/>
   <g id="svg_7">
    <path id="svg_8" fill="#F5C276" d="m34,25c1.654,0 3,1.346 3,3s-1.346,3 -3,3s-3,-1.346 -3,-3s1.346,-3 3,-3m0,-1c-2.209,0 -4,1.791 -4,4s1.791,4 4,4s4,-1.791 4,-4s-1.791,-4 -4,-4l0,0z"/>
   </g>
  </g>
  <g id="svg_9">
   <path id="svg_10" fill="#FFEEA3" d="m20.268,42.167c1.669,-2.404 7.253,-9.667 13.732,-9.667c6.484,0 12.064,7.263 13.733,9.667l-27.465,0z"/>
   <g id="svg_11">
    <path id="svg_12" fill="#F5C276" d="m34,33c5.653,0 10.654,5.823 12.759,8.667l-25.518,0c2.105,-2.844 7.106,-8.667 12.759,-8.667m0,-1c-8.1,0 -14.667,10.667 -14.667,10.667l29.333,0c0.001,0 -6.566,-10.667 -14.666,-10.667l0,0z"/>
   </g>
  </g>
  <g id="svg_13">
   <path id="svg_14" fill="#FFEEA3" d="m22.615,71.5c0.607,-1.39 3.561,-3.195 7.603,-3.955l0.316,-0.06l0.076,-0.313c0.384,-1.573 1.778,-2.672 3.39,-2.672s3.006,1.099 3.39,2.672l0.076,0.313l0.316,0.06c4.042,0.76 6.995,2.565 7.603,3.955l-22.77,0z"/>
   <g id="svg_15">
    <path id="svg_16" fill="#F5C276" d="m34,65c1.381,0 2.575,0.942 2.904,2.29l0.153,0.627l0.634,0.119c3.395,0.638 5.682,1.949 6.703,2.964l-20.787,0c1.021,-1.015 3.308,-2.326 6.703,-2.964l0.634,-0.119l0.153,-0.627c0.328,-1.348 1.522,-2.29 2.903,-2.29m0,-1c-1.881,0 -3.449,1.304 -3.875,3.054c-4.715,0.885 -8.125,3.192 -8.125,4.946l24,0c0,-1.754 -3.41,-4.061 -8.125,-4.946c-0.426,-1.75 -1.994,-3.054 -3.875,-3.054l0,0z"/>
   </g>
  </g>
  <g id="svg_17">
   <path id="svg_18" fill="#FFEEA3" d="m33.998,63.5c-0.86,-0.007 -19.228,-0.443 -19.495,-23l31.497,0c0.838,-0.019 20.169,-0.506 26.197,-6l6.853,0c-19.656,28.27 -44.62,28.992 -45.052,29z"/>
   <g id="svg_19">
    <path id="svg_20" fill="#F5C276" d="m78.087,35c-19.476,27.363 -43.85,27.997 -44.08,28c-0.765,-0.007 -18.466,-0.408 -18.995,-22l31.01,0c0.828,-0.018 20.035,-0.503 26.365,-6l5.7,0m1.913,-1l-8,0c-5.778,5.556 -26,6 -26,6l-32,0c0,23.889 20,24 20,24s25.799,-0.276 46,-30l0,0z"/>
   </g>
  </g>
  <g id="svg_21">
   <path id="svg_22" fill="#FFEEA3" d="m33.998,63.5c-0.86,-0.007 -19.228,-0.443 -19.495,-23l31.497,0c0.838,-0.019 20.169,-0.506 26.197,-6l6.853,0c-19.656,28.27 -44.62,28.992 -45.052,29z"/>
   <g id="svg_23">
    <path id="svg_24" fill="#F5C276" d="m78.087,35c-19.476,27.363 -43.85,27.997 -44.08,28c-0.765,-0.007 -18.466,-0.408 -18.995,-22l31.01,0c0.828,-0.018 20.035,-0.503 26.365,-6l5.7,0m1.913,-1l-8,0c-5.778,5.556 -26,6 -26,6l-32,0c0,23.889 20,24 20,24s25.799,-0.276 46,-30l0,0z"/>
   </g>
  </g>
 </g>
</svg>