<?xml version="1.0" encoding="utf-8"?>
<!-- Generator: Adobe Illustrator 21.1.0, SVG Export Plug-In . SVG Version: 6.00 Build 0)  -->
<svg version="1.1" id="Layer_1" xmlns="http://www.w3.org/2000/svg" xmlns:xlink="http://www.w3.org/1999/xlink" x="0px" y="0px"
	 viewBox="0 0 256 256" style="enable-background:new 0 0 256 256;" xml:space="preserve">
<style type="text/css">
	.st0{fill:#C0E5FE;stroke:#8CB2EC;stroke-width:4;stroke-miterlimit:10;}
	.st1{fill:#FDEB9F;stroke:#EEBB71;stroke-width:4;stroke-miterlimit:10;}
	.st2{fill:#EEBB71;stroke:#EEBB71;stroke-width:4;stroke-miterlimit:10;}
</style>
<g>
	<path class="st0" d="M239.2,111.3c2.2-18-29.2-26.9-29.2-26.9s-32.9-9-29.9-20.9s15-9,15-9s-3,15,12,18c15,3,15-18,15-18
		s0-20.9-26.9-20.9s-29.9,18-29.9,23.9s3,26.9,38.9,32.9C240,96.3,239.2,111.3,239.2,111.3z"/>
	<path class="st1" d="M72.4,129.2c0,0,36.7-53.9,72.2,0"/>
	<circle class="st1" cx="109.8" cy="91.8" r="10.5"/>
	<path class="st1" d="M108.3,198.1c0,0-3,9-9,12c-6,3-12,0-23.9,12h68.8c-12-12-18-9-23.9-12c-6-3-9-12-9-12"/>
	<path class="st2" d="M56,156.3c-34.4-5.8-40.4-42-40.4-42s18,18.1,35.9,21v-6.1c-20.9-3-41.9-26.9-41.9-26.9
		c3,68.8,64,83.4,64,83.4"/>
	<path class="st1" d="M153.2,129.2H51.5c0,0,0,68.8,56.8,68.8S219,150.2,246,111.3H222C222,111.3,213,126.3,153.2,129.2z"/>
</g>
</svg>
